<svg xmlns="http://www.w3.org/2000/svg" viewBox="0 0 522.4 908.51"><defs><style>.cls-1{fill:#333;}</style></defs><g id="Layer_2" data-name="Layer 2"><g id="Layer_2-2" data-name="Layer 2"><path class="cls-1" d="M227.72,88.34c.76-1.88.15-3.78.44-5.7.2-1.29.68-2.59.92-3.89.51-2.88.68-5.83,1.08-8.75.37-2.63-.57-5.47.72-7.94.86-1.66,2-2.57,2.26-4.6.52-3.9.71-5.94,2.62-9,1.72-2.82,2-6.62,3-9.74s1.82-5.92,3-8.93c1.58-4,4.17-5.41,6.72-8.81,1.61-2.15,2.46-4,4.89-5.41a22.69,22.69,0,0,0,3.81-2.32c1.5-1.34,4-2.91,4.88-4.71,0,.07.16.11.19.09.16-1.56.93-1.57,2-2,2.76-1,4.67-1.15,7.31-3.4,1.06.39,1.77,1.08,2.87,1,2.19-.21,3.2-2.38,4.9-3.17,3.17-1.48,10.83-1.06,13.95-.4,3.34.7,6.74,1.21,10.1,1.86,3.63.7,7.19.16,10.72,1.42,2.23.8,3.09,2,5.26,3.18,1.62.85,3.66,1.47,5,2.83.75.76.87,1.74,1.46,2.59,1.88,2.73,4.34,4.12,7.2,5.36,1.76.76,3.5,2.1,5.72,2.12-.39,1.13.34,2.82.92,3.8,1.14,1.94,3.61,2.16,4.6,3.88.6,1.05.11,2.29,1,3.42.53.68,1.7,1,2.26,1.74,1.36,1.77.66,2,3.32,2.46-.38,1.64-.94,3.72-.17,5.32,1,2,1.78,2.39,2.14,4.8a16.65,16.65,0,0,1-.16,5.35c-.2,1.51-.07,2-.86,2.85-.61.67-1.7.78-2.31,1.71-1.08,0-2.08.82-3.21,1.21,0,0,.13,15-.57,20.9s-.82,6.78-1.28,9.7-1.41,4.79-2.69,5.84a4.92,4.92,0,0,0-2,3.51c-.23,1.52.82,9.47.94,13.32s.11,14.5-1.41,16.25-5.49,1.17-7,1.17-2.22-.82-3.16.47a24.83,24.83,0,0,0-2.68,6.89c-.47,2.11-2.11,3.74-3.28,3.86l-2.34.24-2,3s.82,2.11-.24,3.39a8,8,0,0,1-5.61,2.46c-1.87-.12-4.32-1.64-4.79-.94a5.62,5.62,0,0,0-.58,2.11s18.82,13.44,23,26.65S336,189,336,189s17.18,11.46,24.08,19.76,9.23,10.29,11.69,11.1,22.21,1.17,26.41,2.69c0,0,10.64-12.39,23-18.35,0,0,7-18.59,19.87-24.08s53.42-4.56,72.59,13.21,1.17,49.33-1.52,51.9-15.78,12.27-38.57,5.84-24.31-7.36-24.31-7.36-8.19,6.19-10.17,7.36-5.15,3.74-6.67,4.8a10.23,10.23,0,0,1-4.09,1.28S413.85,273.89,405,275.29s-20,2.34-21.85,2.57-17.42-.12-20.34-1.52-20.34-15.78-20.34-15.78-.23,9-6.9,13.56-7.13,4.32-9.23,5a18.08,18.08,0,0,0-3.86,1.87,46.5,46.5,0,0,0-6,.46c-3.16.47-17,6.78-17.18,7.13a3.63,3.63,0,0,0-.35,1.17s-1.29,24.32-1.76,29-3.15,14.61-2.69,20.34,1.17,6.78,1.17,6.78,7,2.1,7,2.69.11,1.05,1.05,1.28A6.72,6.72,0,0,1,306,351.5l2.1,3.27a3.62,3.62,0,0,1,2.69,3c.24,2.46.82,3.51.35,5.38s-.58,1.64-.23,3.74.7,6.55.7,6.55-.35,7.94-.58,9.35-1.17,3.27-1.17,5.49.35,2.81-.24,5.14a22.75,22.75,0,0,0-1.05,4.33,17.92,17.92,0,0,0-.23,6.19c.51,1.29,3.14,2.38,4.3,2.77,1.58.53,2.11,1.59,3.61,2.16a5.27,5.27,0,0,1,2.87,2.42c1,1.39,2.84,2.17,3.74,3.63.33.52.37,1.19.65,1.74a18.25,18.25,0,0,0,1.94,2.53,13.62,13.62,0,0,1,2.38,3.78,38.88,38.88,0,0,1,1.47,9.61,17.89,17.89,0,0,0,.34,4.35,52.18,52.18,0,0,0,2.38,5.94c1.87,4.4,4,8.68,5.94,13.08a81.19,81.19,0,0,1,3.62,9.29c1.25,4.29,1.53,8.78,2.65,13.1,1.42,5.45,2.53,10.68,4.65,15.9.93,2.31,1.46,4.77,2.45,7.09.26.62,2.17,3.72,2,4.07-.92,2,2.2,4.59,3,6.61a30.09,30.09,0,0,1,1.56,6.42c.49,3.24,1.63,6.12,2.42,9.26s.93,6.06,2.05,9a54,54,0,0,1,3,13.21c.67,5.87,1.85,11.63,2.09,17.55.18,4.52.33,9.08.38,13.6,0,1.09-.06,6.31-.47,6.53-.09,1.87,1.62,3.43,2.51,5a25.67,25.67,0,0,1,2.54,6.31c.49,1.72,1.3,3.28,1.85,5,.68,2.09.95,4.3,1.52,6.43,1,3.68,3.1,7.13,3.5,11,.13,1.26.79,7.13-.35,7.14,0,0,1.05,10.29.82,13s-1.29,8.65-.7,12.85,3.38,24.78,3.85,36.82-2.22,29.58-2.34,30.16,2,.82,1.87,3-.35,9.82-.7,11.22a27.51,27.51,0,0,0-.81,6.43,42.11,42.11,0,0,0,1.16,5.61s-.46.23-.46,1.64,1.05,7,.7,7.83a10,10,0,0,0-.94,3.51c-.11,1.63-.11,5-.11,5a29.43,29.43,0,0,1,.93,4.44c.12,1.64.12,5,.12,5s.35,4-.12,5a12.77,12.77,0,0,1-1.64,3.39,13.21,13.21,0,0,0-1.63,3.15v3.86s2.8,6.08,2.92,8a21.71,21.71,0,0,0,.58,3.86,3.44,3.44,0,0,0,1.17,1.75l.59,2.22s3,.12,3.5,1.52a7.69,7.69,0,0,0,1.64,2.57s3.86,1.29,4.56,2.57a10.23,10.23,0,0,0,2.1,2.46,18,18,0,0,1,2.93,2.45c.7.94,2.8.7,3.62,2.46a10.17,10.17,0,0,0,1.75,2.68l3.74,2a3.1,3.1,0,0,1,2.58,1.87c.93,1.87,2.1,1.76,3.15,2.69s.94.23,1.87,1.4,1.87.82,3.74,1.64,2.11,0,4.33,1.75,1.63.7,3.5,1.52a31.14,31.14,0,0,0,4.56,2c1.17.23,2.22.23,2.69.7s21.27,9.82,25.37,15.43,5,11.57,2,15.55-16.13,7.71-27.82,7.71a62.8,62.8,0,0,1-33.54-9.35c-10.76-6.55-15-10.17-39.4-14.84s-29.33-4.91-31-7.6a10.63,10.63,0,0,1-1.64-5,40.2,40.2,0,0,1-1.4-19.4c2-10.17,2.8-16.83,3-19.06s2-3.27,2.34-3.85l1.05-1.76s1.4-6.42.82-9.81-1.52-5.26-1.17-8.65-1.64-29.81-1.64-31.33-1.05-14.14-1.05-14.14l.58-1.64A82.88,82.88,0,0,0,324.54,715c-4.09-7.37-7.48-22.91-3.62-44.19s2.92-27.47,1.52-30-8.3-14.26-8.3-14.26-40.91.35-49.79.7l-24.08.94s-16.6,1.05-16.6.7-3.27-18.35-3.51-19.52-1.87.7-1.87.7S215,619.41,215,623.27s-.12,5.26-.35,8.41a49,49,0,0,1-.7,5.5s-25.6-3.63-27.12-3.28a10.55,10.55,0,0,0-2.81,1.17s-9.46,34.37-11,35.65-15.55,4.33-15.55,4.33-13,12.74-23.49,19.52-40.8,51.55-40.8,51.55,1,4-3.62,9.93-18.12,21.51-18.12,21.51L66,785.63l-4,9.58-2.57,5.61a9.94,9.94,0,0,1-1.64,3.74,11.34,11.34,0,0,0-2.33,5.73c-.35,2.57-.71,8.18-1.52,10.64s-2.34,4.44-2.34,4.91.58,29.1,1,31.21,2.81,5.49,3.16,7.36a35.58,35.58,0,0,0,1.63,5s13.56,17.88,12,24.89-4.56,13.45-17.18,13.91-27.24,1.52-37.87-9.11-9.35-38.58-12-47.81-3.63-24-.12-31.21,8.3-10.4,9.35-14.38S11.28,801.64,13,798s2.8-5.5,2.8-5.5l1.87-3.74s14.38-31.32,16-36.47a66.94,66.94,0,0,1,3.74-9.82c.82-1.51,4.45-12.74,4.45-12.74h1.87s14.84-46,29.8-54.93,19.52-10.17,23.62-18a21.85,21.85,0,0,0,2-8.69c.19-3.36.93-6.57,1.29-9.92.44-4.11.81-8.37,1.19-12.42.45-4.73,2-9.38,2.34-14.13.38-4.59.48-9.32.71-13.94.21-4.31,1-8.54,1.27-12.84.12-2,.1-4.1.18-6.16a12.64,12.64,0,0,1,.17-3.49c2.6-7,.63-15,1.14-22.48.35-5.19,2-10.22,2.55-15.38.32-3,.36-5.94.52-8.93s1.92-5.62,2.87-8.3a65.53,65.53,0,0,0,2.86-12.2c.6-3.95,1.17-8.1,1.4-12.08.68-11.6,2.47-22.93,2.91-34.53.14-3.83.22-7.75.49-11.57.16-2.25.93-4.38,1.16-6.62a55.54,55.54,0,0,1,.73-5.63c1-4.94,1.83-9.87,3.23-14.7.63-2.16,2.35-4.62,2.3-6.91a7.86,7.86,0,0,0-.33-1.54,12.47,12.47,0,0,1,.75-6.83,13.76,13.76,0,0,1,4.9-6.67c.21-.14.46-.09.64-.25.65-.56.7-1.36,1.07-2.28.61-1.5,2.27-3.21,2.1-4.93a30.54,30.54,0,0,1-.67-3c0-.93.39-1.82.34-2.71-.09-1.81-1-3.22-.74-5.19a13,13,0,0,0,.34-3.5,8.91,8.91,0,0,1-.1-2.82,45.87,45.87,0,0,0,.4-5.13,6.68,6.68,0,0,0,.12-2.1s-7.48-5-12.28-16.72-7.59-47.1-10.28-52.72-5.5-15.66-6-37.17-1.17-34.6-1.17-41.37-.59-28.17,12.27-42.55,22.68-18.59,27.82-22.56,8.65-11.69,16-15.78,34.95-12.16,46.17-26.3,16.24-21.63,16.24-21.63l-.23-2.1Z"/></g></g></svg>